<?xml version="1.0" standalone="no"?>
<!DOCTYPE svg PUBLIC "-//W3C//DTD SVG 20010904//EN"
 "http://www.w3.org/TR/2001/REC-SVG-20010904/DTD/svg10.dtd">
<svg version="1.0" xmlns="http://www.w3.org/2000/svg"
 width="776.000000pt" height="776.000000pt" viewBox="0 0 776.000000 776.000000"
 preserveAspectRatio="xMidYMid meet">
<metadata>
Created by potrace 1.14, written by Peter Selinger 2001-2017
</metadata>
<g transform="translate(0.000000,776.000000) scale(0.100000,-0.100000)"
fill="#000000" stroke="none">
<path d="M2397 6483 c-3 -2 -32 -7 -64 -9 -319 -23 -746 -162 -1030 -334 -36
-22 -69 -40 -73 -40 -5 0 -10 -3 -12 -8 -1 -4 -28 -23 -58 -42 -67 -42 -229
-168 -289 -224 -75 -70 -202 -199 -235 -240 -17 -21 -35 -43 -41 -50 -32 -36
-88 -111 -136 -181 -30 -44 -58 -83 -64 -87 -5 -4 -6 -8 -1 -8 5 0 2 -8 -6
-17 -9 -10 -24 -34 -33 -53 -10 -19 -21 -37 -24 -40 -8 -7 -93 -184 -151 -315
-11 -24 -81 -234 -85 -255 -2 -8 -13 -53 -24 -100 -22 -97 -28 -124 -46 -235
-28 -170 -28 -561 0 -740 46 -292 122 -537 243 -783 56 -114 132 -246 144
-250 4 -2 8 -8 8 -13 0 -11 86 -133 159 -224 343 -430 840 -754 1366 -890 17
-5 35 -9 40 -11 6 -1 25 -5 44 -9 19 -3 37 -7 40 -9 3 -2 23 -7 44 -10 96 -15
111 -18 131 -22 93 -19 496 -26 631 -11 39 5 81 10 95 11 34 4 69 27 76 49 8
26 -14 75 -37 82 -11 4 -50 4 -87 0 -152 -15 -193 -17 -322 -17 -128 0 -254 7
-310 17 -14 2 -43 7 -65 10 -23 3 -50 7 -60 9 -299 63 -454 116 -695 239 -103
53 -340 204 -340 217 0 5 -9 12 -20 15 -12 4 -28 14 -38 24 -9 9 -48 44 -86
76 -374 321 -657 783 -776 1265 -27 112 -33 142 -45 225 -4 22 -9 53 -11 70
-23 139 -22 522 1 635 3 14 8 43 10 65 3 22 10 63 15 90 6 28 12 59 14 70 26
130 115 382 186 527 60 122 161 298 172 298 4 0 8 5 8 11 0 14 123 178 192
254 109 121 261 266 331 314 12 8 27 20 33 26 6 6 37 28 70 50 32 22 61 43 64
46 35 39 435 240 525 263 6 2 17 6 25 9 17 7 146 46 170 52 81 20 213 47 245
51 22 3 51 7 65 10 89 17 410 24 545 11 141 -13 279 -37 370 -63 28 -8 50 -14
50 -13 0 1 20 -5 45 -12 25 -7 47 -13 50 -14 15 -3 58 -17 75 -24 11 -5 58
-23 105 -42 168 -65 243 -106 212 -117 -14 -4 -202 -144 -252 -187 -162 -139
-362 -363 -478 -535 -84 -125 -185 -310 -234 -430 -6 -14 -14 -33 -20 -43 -47
-93 -143 -436 -163 -587 -3 -25 -8 -56 -10 -70 -17 -86 -24 -447 -12 -555 4
-33 10 -87 13 -119 3 -33 7 -63 9 -66 2 -4 7 -29 10 -56 18 -131 104 -422 170
-569 181 -405 416 -718 748 -993 91 -76 277 -205 357 -248 19 -11 37 -21 40
-24 10 -10 247 -120 315 -146 173 -65 382 -122 520 -140 22 -3 51 -8 65 -10
69 -12 193 -19 355 -19 179 0 267 7 418 31 23 4 52 8 64 9 11 2 30 6 41 9 11
4 29 9 39 11 150 30 366 102 501 165 34 17 64 30 66 30 15 0 340 191 356 210
3 3 30 24 60 45 148 107 351 302 473 455 66 82 237 330 237 344 0 3 10 23 23
44 32 52 139 292 170 382 32 94 64 198 71 230 3 14 7 36 10 50 7 30 24 116 31
150 3 14 8 48 10 76 3 28 8 62 11 75 13 53 12 485 -2 593 -42 336 -119 597
-258 875 -69 138 -192 338 -233 379 -7 7 -13 17 -13 20 0 4 -10 18 -22 32 -13
14 -36 43 -52 64 -30 39 -250 264 -316 322 -58 51 -238 184 -248 184 -6 0 -12
4 -14 8 -5 12 -161 104 -273 160 -93 46 -289 127 -360 148 -102 30 -128 37
-220 59 -88 21 -95 22 -215 40 -97 15 -170 19 -355 19 -193 1 -260 -3 -370
-19 -70 -11 -98 -73 -52 -115 19 -19 30 -21 77 -16 157 18 207 20 345 20 83
-1 177 -4 210 -7 33 -4 83 -9 110 -12 28 -3 61 -7 75 -10 43 -9 74 -15 105
-21 17 -3 57 -12 90 -20 33 -9 67 -17 75 -19 50 -11 229 -76 315 -115 310
-139 515 -280 756 -519 376 -375 618 -847 695 -1356 2 -11 5 -36 8 -55 21
-132 27 -433 12 -590 -6 -72 -34 -244 -50 -315 -24 -109 -95 -331 -121 -381
-8 -16 -15 -32 -15 -36 0 -9 -83 -178 -122 -248 -62 -113 -180 -283 -268 -384
-70 -83 -255 -262 -335 -325 -49 -39 -96 -76 -103 -82 -63 -52 -447 -269 -476
-269 -2 0 -17 -5 -33 -12 -15 -6 -32 -12 -38 -14 -5 -2 -54 -19 -109 -39 -118
-42 -218 -68 -346 -90 -52 -9 -106 -18 -120 -20 -164 -29 -519 -23 -715 12
-22 3 -44 7 -50 8 -53 6 -220 48 -315 79 -117 38 -357 140 -378 161 -2 1 33
28 77 59 168 119 345 278 466 420 28 33 55 64 61 70 25 26 152 208 200 287 58
95 138 251 179 349 33 76 95 254 101 289 3 14 7 28 9 32 5 6 29 111 40 169 14
73 18 97 21 115 1 11 5 40 8 65 20 143 26 437 12 580 -13 134 -14 139 -41 295
-17 101 -89 339 -135 450 -168 401 -371 689 -697 986 -86 79 -394 300 -423
304 -3 0 -25 13 -50 27 -148 88 -500 223 -660 253 -14 3 -36 7 -50 10 -14 3
-41 8 -60 11 -19 3 -42 7 -50 9 -8 2 -35 7 -60 10 -25 3 -63 8 -85 11 -50 8
-481 14 -488 7z m1613 -567 c25 -17 47 -33 50 -36 3 -3 21 -17 40 -30 19 -13
40 -29 46 -35 6 -5 31 -26 54 -45 104 -84 255 -246 388 -415 15 -19 117 -171
128 -191 6 -10 23 -40 38 -66 l27 -46 -38 -29 c-21 -15 -42 -33 -48 -39 -5 -6
-32 -28 -60 -50 -27 -21 -55 -43 -61 -49 -6 -5 -35 -30 -64 -55 -29 -25 -58
-50 -64 -55 -6 -6 -56 -48 -111 -95 -55 -47 -107 -92 -115 -100 -9 -8 -52 -46
-95 -85 -43 -38 -83 -75 -89 -80 -6 -6 -30 -28 -53 -49 l-42 -37 0 816 c0 628
3 814 12 808 7 -4 32 -21 57 -37z m-203 -781 l0 -805 -26 22 c-13 13 -34 32
-46 43 -12 11 -50 45 -84 75 -34 30 -75 66 -90 80 -31 29 -139 123 -196 171
-22 19 -52 45 -67 59 -14 14 -91 79 -171 144 l-146 119 21 41 c37 72 163 258
241 356 79 98 238 260 341 346 81 68 199 153 212 154 8 0 11 -232 11 -805z
m1060 -262 c66 -149 150 -430 167 -561 3 -24 8 -47 10 -51 3 -4 8 -39 10 -77
3 -38 8 -79 10 -92 4 -17 -2 -26 -24 -37 -15 -8 -30 -18 -32 -22 -1 -5 -28
-28 -58 -53 -30 -25 -57 -47 -60 -50 -3 -3 -50 -43 -105 -90 -120 -102 -127
-108 -236 -201 -47 -41 -108 -93 -135 -115 -27 -23 -59 -50 -70 -60 -12 -11
-43 -37 -70 -59 -26 -22 -52 -45 -58 -50 -33 -31 -265 -225 -270 -225 -3 0 -5
229 -5 509 l0 510 42 36 c23 21 85 76 137 124 52 48 115 105 140 127 25 21 63
55 85 75 22 20 56 50 75 65 19 16 40 34 45 40 6 6 37 33 70 60 32 27 66 56 75
64 9 8 38 33 65 55 27 22 74 61 104 87 31 26 57 47 59 48 2 0 15 -26 29 -57z
m-1841 -40 c21 -17 49 -39 61 -50 12 -10 41 -34 64 -53 23 -19 49 -42 59 -50
103 -90 142 -124 184 -159 27 -23 54 -48 61 -54 7 -7 27 -25 46 -42 62 -54
243 -220 275 -251 l31 -30 0 -507 c0 -279 -2 -507 -5 -507 -5 0 -103 81 -133
109 -9 9 -25 23 -35 31 -34 27 -138 115 -154 130 -9 8 -38 33 -64 55 -27 22
-56 47 -65 56 -9 8 -43 37 -76 65 -33 27 -62 51 -65 54 -3 3 -48 41 -100 85
-52 44 -97 82 -100 85 -14 14 -212 182 -260 221 -37 30 -54 51 -53 64 1 11 4
43 7 72 8 86 34 230 61 333 34 134 115 363 143 408 l14 22 33 -27 c17 -16 50
-42 71 -60z m2045 -1025 c-1 -51 -4 -109 -6 -128 -2 -19 -6 -62 -10 -95 -9
-88 -24 -178 -41 -253 -9 -37 -18 -75 -20 -84 -10 -43 -14 -57 -34 -123 -11
-38 -25 -79 -29 -90 -60 -146 -83 -198 -137 -305 -54 -106 -89 -165 -176 -294
-15 -21 -92 -121 -141 -180 -46 -57 -203 -213 -266 -266 -29 -25 -59 -50 -65
-55 -6 -6 -27 -22 -46 -35 -19 -13 -37 -27 -40 -30 -5 -6 -82 -59 -107 -73 -8
-5 -11 133 -12 570 0 544 1 578 18 592 10 9 40 34 66 56 26 22 54 46 62 54 8
7 33 29 56 48 23 20 65 55 92 78 28 24 88 75 135 115 91 77 169 143 235 200
23 19 65 55 95 80 29 25 58 50 64 55 6 6 74 64 151 130 77 66 142 123 144 128
9 22 13 -11 12 -95z m-2343 58 c15 -13 79 -68 142 -122 63 -54 120 -103 126
-109 7 -5 31 -26 54 -44 23 -19 48 -40 54 -46 6 -6 56 -49 111 -95 55 -47 102
-87 105 -90 3 -3 46 -39 95 -80 50 -41 97 -82 105 -90 8 -8 56 -49 105 -90 50
-41 101 -84 115 -97 14 -13 34 -31 46 -40 21 -18 21 -21 21 -591 l0 -572 -26
17 c-38 24 -160 115 -206 154 -51 42 -293 285 -323 324 -12 17 -42 56 -66 87
-75 98 -165 244 -231 374 -35 68 -64 128 -65 132 -1 4 -8 23 -17 42 -109 260
-187 638 -185 905 1 67 0 66 40 31z"/>
</g>
</svg>
