<svg width="33" height="33" viewBox="0 0 33 33" fill="none" xmlns="http://www.w3.org/2000/svg">
<path d="M13.4 27.4484C14.6675 28.1582 15.9159 28.5148 17.0789 28.5148C18.0524 28.5144 18.966 28.2644 19.7791 27.7625L22.7762 25.9137C22.8843 25.847 22.9614 25.7405 22.9908 25.6168C23.0201 25.4934 22.9988 25.3633 22.9321 25.2552L20.3342 21.0447C20.2676 20.9369 20.1608 20.8598 20.0374 20.8304C19.913 20.8014 19.7835 20.8225 19.6758 20.8891L16.656 22.753C16.1917 23.0393 15.5961 23.1308 15.0231 23.0049C14.4501 22.8786 13.9609 22.5463 13.6809 22.0922L9.5767 15.4408C8.98327 14.479 9.28237 13.2137 10.2435 12.6203L10.2438 12.62L13.378 10.685C13.6028 10.5463 13.6723 10.2517 13.5336 10.0269L10.9354 5.81736C10.7967 5.59255 10.5018 5.52208 10.2773 5.66143L7.1456 7.59447C3.6552 9.74881 3.77765 15.4041 7.44406 21.3473C9.12485 24.0725 11.2403 26.2392 13.4 27.4484ZM7.64846 8.40824L10.3729 6.7268L12.4689 10.1222L9.74155 11.8059C9.74092 11.8062 9.74028 11.8068 9.74028 11.8068C8.33149 12.6777 7.89272 14.5326 8.76293 15.9427L12.8672 22.5938C13.282 23.267 13.9931 23.7571 14.8177 23.9389C15.6312 24.1171 16.4848 23.9822 17.1586 23.5664L19.7711 21.9538L21.8668 25.3499L19.2765 26.9478C17.385 28.1149 15.2909 27.4102 13.8675 26.6133C11.8474 25.4819 9.85507 23.4334 8.25815 20.8448C4.88765 15.3811 4.63701 10.267 7.64846 8.40824Z" fill="white"/>
<path d="M16.6098 10.8396C18.1576 10.9311 19.5275 11.7264 20.3686 13.022C21.1728 14.2567 21.3664 15.7698 20.8993 17.1735C20.8157 17.4241 20.9512 17.6951 21.2019 17.7781C21.2519 17.795 21.3026 17.8026 21.353 17.8026C21.5536 17.8026 21.7401 17.676 21.8068 17.4754C22.3667 15.7937 22.1346 13.9799 21.1706 12.5003C20.1776 10.9703 18.4933 9.99234 16.6662 9.88424C16.3999 9.87308 16.1761 10.0698 16.1605 10.3335C16.1448 10.5976 16.346 10.824 16.6098 10.8396Z" fill="white"/>
<path d="M17.2794 7.28939C19.7857 7.57734 22.0105 8.95266 23.3833 11.062C24.7133 13.107 25.0902 15.6249 24.4171 17.9702C24.344 18.2243 24.4907 18.489 24.7446 18.5617C24.7889 18.5745 24.8329 18.5805 24.8769 18.5805C25.0845 18.5805 25.2761 18.4437 25.3361 18.2342C26.0857 15.6223 25.6661 12.8178 24.1849 10.5403C22.6562 8.19117 20.1792 6.65992 17.3884 6.33913C17.1311 6.30884 16.8891 6.4973 16.8588 6.75973C16.8285 7.02217 17.0166 7.2591 17.2794 7.28939Z" fill="white"/>
<path d="M17.9334 4.1626C21.2622 4.62529 24.222 6.50667 26.0542 9.32459C27.8492 12.0819 28.3874 15.4875 27.5316 18.668C27.4627 18.9231 27.6141 19.1856 27.8692 19.2541C27.9107 19.2653 27.9528 19.2707 27.9939 19.2707C28.2047 19.2707 28.3983 19.1304 28.4553 18.9167C29.382 15.4741 28.7991 11.7876 26.8562 8.80291C24.8728 5.75284 21.6687 3.71617 18.0658 3.21521C17.8053 3.18046 17.5623 3.36126 17.5262 3.62306C17.4896 3.88454 17.672 4.12625 17.9334 4.1626Z" fill="white"/>
</svg>
