<svg width="33" height="33" viewBox="0 0 33 33" fill="none" xmlns="http://www.w3.org/2000/svg">
<path fill-rule="evenodd" clip-rule="evenodd" d="M16.8 32.0356C25.6365 32.0356 32.8 24.8722 32.8 16.0356C32.8 7.1991 25.6365 0.0356445 16.8 0.0356445C7.96344 0.0356445 0.799988 7.1991 0.799988 16.0356C0.799988 24.8722 7.96344 32.0356 16.8 32.0356ZM8.79999 12.641C8.79999 10.1015 10.8661 8.03564 13.4054 8.03564H20.1946C22.7341 8.03564 24.8 10.1018 24.8 12.641V19.4925C24.8 22.0318 22.7341 24.0979 20.1946 24.0979H13.4054C10.8658 24.0979 8.79999 22.0318 8.79999 19.4925V12.641ZM20.1946 22.5738C21.8936 22.5738 23.2759 21.1915 23.2759 19.4925V12.641C23.2759 10.9421 21.8936 9.55977 20.1946 9.55977H13.4054C11.7064 9.55977 10.3241 10.9421 10.3241 12.641V19.4925C10.3241 21.1915 11.7064 22.5738 13.4054 22.5738H20.1946ZM12.6362 16.0374C12.6362 13.7587 14.51 11.9051 16.8127 11.9051C19.1154 11.9051 20.9891 13.7587 20.9891 16.0374C20.9891 18.3157 19.1154 20.1693 16.8127 20.1693C14.5097 20.1693 12.6362 18.3157 12.6362 16.0374ZM14.1575 16.0374C14.1575 17.4767 15.3485 18.6481 16.8127 18.6481C18.2769 18.6481 19.4679 17.477 19.4679 16.0374C19.4679 14.5978 18.2766 13.4267 16.8127 13.4267C15.3485 13.4267 14.1575 14.5978 14.1575 16.0374ZM21.0639 12.719C21.6066 12.719 22.0466 12.279 22.0466 11.7363C22.0466 11.1936 21.6066 10.7537 21.0639 10.7537C20.5212 10.7537 20.0812 11.1936 20.0812 11.7363C20.0812 12.279 20.5212 12.719 21.0639 12.719Z" fill="white"/>
</svg>
