<svg width="33" height="33" viewBox="0 0 33 33" fill="none" xmlns="http://www.w3.org/2000/svg">
<g clip-path="url(#clip0_50_255)">
<path fill-rule="evenodd" clip-rule="evenodd" d="M16.8 32.5874C25.6365 32.5874 32.8 25.4239 32.8 16.5874C32.8 7.75086 25.6365 0.587402 16.8 0.587402C7.96344 0.587402 0.799988 7.75086 0.799988 16.5874C0.799988 25.4239 7.96344 32.5874 16.8 32.5874ZM9.50293 10.8903C9.95301 10.4403 10.5635 10.1874 11.2 10.1874H22.4C23.0365 10.1874 23.647 10.4403 24.097 10.8903C24.5471 11.3404 24.8 11.9509 24.8 12.5874V20.5874C24.8 21.2239 24.5471 21.8344 24.097 22.2845C23.647 22.7345 23.0365 22.9874 22.4 22.9874H11.2C10.5635 22.9874 9.95301 22.7345 9.50293 22.2845C9.05285 21.8344 8.79999 21.2239 8.79999 20.5874V12.5874C8.79999 11.9509 9.05285 11.3404 9.50293 10.8903ZM17.368 16.4914L22.072 11.7874H11.528L16.232 16.4914C16.3064 16.5664 16.3948 16.6259 16.4923 16.6665C16.5898 16.7071 16.6944 16.728 16.8 16.728C16.9056 16.728 17.0102 16.7071 17.1076 16.6665C17.2051 16.6259 17.2936 16.5664 17.368 16.4914ZM22.9657 21.1531C23.1157 21.003 23.2 20.7996 23.2 20.5874V12.9154L18.496 17.6194C18.046 18.0688 17.436 18.3213 16.8 18.3213C16.164 18.3213 15.554 18.0688 15.104 17.6194L10.4 12.9154V20.5874C10.4 20.7996 10.4843 21.003 10.6343 21.1531C10.7843 21.3031 10.9878 21.3874 11.2 21.3874H22.4C22.6121 21.3874 22.8156 21.3031 22.9657 21.1531Z" fill="white"/>
</g>
<defs>
<clipPath id="clip0_50_255">
<rect width="32" height="32" fill="white" transform="translate(0.799988 0.587402)"/>
</clipPath>
</defs>
</svg>
