<svg width="33" height="33" viewBox="0 0 33 33" fill="none" xmlns="http://www.w3.org/2000/svg">
<path fill-rule="evenodd" clip-rule="evenodd" d="M16.8 32.4829C25.6365 32.4829 32.8 25.3195 32.8 16.4829C32.8 7.64637 25.6365 0.48291 16.8 0.48291C7.96344 0.48291 0.799988 7.64637 0.799988 16.4829C0.799988 25.3195 7.96344 32.4829 16.8 32.4829ZM17.9314 7.84825C17.0089 7.87398 16.0354 8.09606 15.3477 8.74941C14.7798 9.27472 14.4937 10.0393 14.4294 10.8035C14.4098 11.3502 14.4126 11.8982 14.4154 12.4461C14.4175 12.8569 14.4196 13.2677 14.4123 13.6776C14.1597 13.6795 13.9064 13.6789 13.6529 13.6784C13.315 13.6777 12.9768 13.677 12.64 13.6819C12.64 14.009 12.6405 14.3366 12.6409 14.6645C12.6419 15.3212 12.6428 15.9791 12.64 16.6371C12.9768 16.642 13.315 16.6413 13.6529 16.6406C13.9064 16.6401 14.1597 16.6396 14.4123 16.6414C14.418 17.9455 14.4169 19.2494 14.4159 20.5534C14.4145 22.1834 14.4132 23.8133 14.4251 25.4432C15.1182 25.4383 15.8098 25.439 16.5016 25.4397C17.0205 25.4402 17.5396 25.4407 18.0595 25.4389C18.0638 23.9719 18.0627 22.506 18.0616 21.0402C18.0605 19.5743 18.0595 18.1084 18.0638 16.6414C18.4133 16.6396 18.7629 16.6401 19.1125 16.6406C19.5786 16.6413 20.0447 16.642 20.5108 16.6371C20.6561 15.6548 20.7798 14.6639 20.8481 13.669C20.387 13.6669 19.9257 13.6669 19.4645 13.6669C19.0033 13.6669 18.5421 13.6669 18.0809 13.6648C18.0809 13.4928 18.0806 13.3209 18.0804 13.149C18.0796 12.6333 18.0788 12.1178 18.0852 11.6021C18.1578 11.2048 18.5676 10.9016 18.9649 10.9273H20.8524C20.8567 9.89808 20.8567 8.87318 20.8524 7.84397C20.609 7.84397 20.3657 7.84371 20.1223 7.84345C19.3921 7.84265 18.6617 7.84185 17.9314 7.84825Z" fill="white"/>
</svg>
